<!DOCTYPE html>
<svg viewBox="0 0 289.986 72" width="289.986" height="72">
  <path d="M 90 57.58 L 90 50.927 L 91.247 50.096 L 96.653 23.484 L 95.405 22.653 L 95.405 16 L 111.206 16 L 111.206 22.653 L 109.958 23.484 L 115.364 50.096 L 116.611 50.927 L 116.611 57.58 L 109.245 57.58 L 107.404 48.432 L 99.207 48.432 L 97.366 57.58 L 90 57.58 Z M 100.751 40.948 L 105.86 40.948 L 103.306 28.237 Z M 127.331 57.58 L 127.331 50.927 L 128.579 50.096 L 128.579 23.484 L 127.331 23.484 L 126.5 24.732 L 119.843 24.732 L 119.843 16 L 144.795 16 L 144.795 24.732 L 138.142 24.732 L 137.311 23.484 L 136.063 23.484 L 136.063 50.096 L 137.311 50.927 L 137.311 57.58 L 127.331 57.58 Z M 156.701 57.58 L 156.701 50.927 L 157.948 50.096 L 157.948 23.484 L 156.701 23.484 L 155.869 24.732 L 149.215 24.732 L 149.215 16 L 174.165 16 L 174.165 24.732 L 167.512 24.732 L 166.678 23.484 L 165.431 23.484 L 165.431 50.096 L 166.678 50.927 L 166.678 57.58 L 156.701 57.58 Z M 178.587 57.58 L 178.587 50.927 L 179.835 50.096 L 179.835 23.484 L 178.587 22.653 L 178.587 16 L 200.209 16 L 200.209 24.732 L 193.556 24.732 L 192.726 23.484 L 187.319 23.484 L 187.319 33.047 L 196.884 33.047 L 196.884 40.532 L 187.319 40.532 L 187.319 50.096 L 192.726 50.096 L 193.556 48.848 L 200.209 48.848 L 200.209 57.58 L 178.587 57.58 Z M 204.63 57.58 L 204.63 50.927 L 205.878 50.096 L 205.878 23.484 L 204.63 22.653 L 204.63 16 L 213.838 16 L 222.51 38.212 L 222.51 23.484 L 221.262 22.653 L 221.262 16 L 231.242 16 L 231.242 22.653 L 229.994 23.484 L 229.994 57.58 L 222.034 57.58 L 213.362 35.364 L 213.362 50.096 L 214.61 50.927 L 214.61 57.58 L 204.63 57.58 Z M 235.664 57.58 L 235.664 50.927 L 236.912 50.096 L 236.912 23.484 L 235.664 22.653 L 235.664 16 L 255.502 16 L 261.028 21.524 L 261.028 52.055 L 255.502 57.58 L 235.664 57.58 Z M 244.396 50.096 L 252.414 50.096 L 253.544 48.967 L 253.544 24.612 L 252.414 23.484 L 244.396 23.484 L 244.396 50.096 Z M 270.974 57.58 L 265.45 52.055 L 265.45 21.524 L 270.974 16 L 284.458 16 L 289.986 21.524 L 289.986 52.055 L 284.458 57.58 L 270.974 57.58 Z M 274.063 50.096 L 281.369 50.096 L 282.501 48.967 L 282.501 24.612 L 281.369 23.484 L 274.063 23.484 L 272.934 24.612 L 272.934 48.967 Z" data-bx-origin="-0.097247 -0.259836"></path>
  <g data-bx-origin="0 0" transform="matrix(0.088578, 0, 0, 0.088578, -4.960369, -4.960369)">
    <g xmlns="http://www.w3.org/2000/svg" version="1.1" id="Layer_1" x="0px" y="0px" width="2320px" height="2320px" viewBox="0 0 2320 2320" enable-background="new 0 0 2320 2320" xml:space="preserve" style="">
      <g>
        <g transform="translate(280,56) scale(4.8066666666667)">
          <circle cx="3" cy="3" r="3"></circle>
        </g>
        <g transform="translate(308,56) scale(4.8066666666667)">
          <circle cx="3" cy="3" r="3"></circle>
        </g>
        <g transform="translate(364,56) scale(4.8066666666667)">
          <circle cx="3" cy="3" r="3"></circle>
        </g>
        <g transform="translate(392,56) scale(4.8066666666667)">
          <circle cx="3" cy="3" r="3"></circle>
        </g>
        <g transform="translate(560,56) scale(4.8066666666667)">
          <circle cx="3" cy="3" r="3"></circle>
        </g>
        <g transform="translate(616,56) scale(4.8066666666667)">
          <circle cx="3" cy="3" r="3"></circle>
        </g>
        <g transform="translate(280,84) scale(4.8066666666667)">
          <circle cx="3" cy="3" r="3"></circle>
        </g>
        <g transform="translate(336,84) scale(4.8066666666667)">
          <circle cx="3" cy="3" r="3"></circle>
        </g>
        <g transform="translate(364,84) scale(4.8066666666667)">
          <circle cx="3" cy="3" r="3"></circle>
        </g>
        <g transform="translate(420,84) scale(4.8066666666667)">
          <circle cx="3" cy="3" r="3"></circle>
        </g>
        <g transform="translate(588,84) scale(4.8066666666667)">
          <circle cx="3" cy="3" r="3"></circle>
        </g>
        <g transform="translate(280,112) scale(4.8066666666667)">
          <circle cx="3" cy="3" r="3"></circle>
        </g>
        <g transform="translate(308,112) scale(4.8066666666667)">
          <circle cx="3" cy="3" r="3"></circle>
        </g>
        <g transform="translate(336,112) scale(4.8066666666667)">
          <circle cx="3" cy="3" r="3"></circle>
        </g>
        <g transform="translate(504,112) scale(4.8066666666667)">
          <circle cx="3" cy="3" r="3"></circle>
        </g>
        <g transform="translate(588,112) scale(4.8066666666667)">
          <circle cx="3" cy="3" r="3"></circle>
        </g>
        <g transform="translate(616,112) scale(4.8066666666667)">
          <circle cx="3" cy="3" r="3"></circle>
        </g>
        <g transform="translate(364,140) scale(4.8066666666667)">
          <circle cx="3" cy="3" r="3"></circle>
        </g>
        <g transform="translate(392,140) scale(4.8066666666667)">
          <circle cx="3" cy="3" r="3"></circle>
        </g>
        <g transform="translate(448,140) scale(4.8066666666667)">
          <circle cx="3" cy="3" r="3"></circle>
        </g>
        <g transform="translate(532,140) scale(4.8066666666667)">
          <circle cx="3" cy="3" r="3"></circle>
        </g>
        <g transform="translate(588,140) scale(4.8066666666667)">
          <circle cx="3" cy="3" r="3"></circle>
        </g>
        <g transform="translate(308,168) scale(4.8066666666667)">
          <circle cx="3" cy="3" r="3"></circle>
        </g>
        <g transform="translate(336,168) scale(4.8066666666667)">
          <circle cx="3" cy="3" r="3"></circle>
        </g>
        <g transform="translate(364,168) scale(4.8066666666667)">
          <circle cx="3" cy="3" r="3"></circle>
        </g>
        <g transform="translate(420,168) scale(4.8066666666667)">
          <circle cx="3" cy="3" r="3"></circle>
        </g>
        <g transform="translate(448,168) scale(4.8066666666667)">
          <circle cx="3" cy="3" r="3"></circle>
        </g>
        <g transform="translate(476,168) scale(4.8066666666667)">
          <circle cx="3" cy="3" r="3"></circle>
        </g>
        <g transform="translate(504,168) scale(4.8066666666667)">
          <circle cx="3" cy="3" r="3"></circle>
        </g>
        <g transform="translate(560,168) scale(4.8066666666667)">
          <circle cx="3" cy="3" r="3"></circle>
        </g>
        <g transform="translate(588,168) scale(4.8066666666667)">
          <circle cx="3" cy="3" r="3"></circle>
        </g>
        <g transform="translate(616,168) scale(4.8066666666667)">
          <circle cx="3" cy="3" r="3"></circle>
        </g>
        <g transform="translate(280,196) scale(4.8066666666667)">
          <circle cx="3" cy="3" r="3"></circle>
        </g>
        <g transform="translate(392,196) scale(4.8066666666667)">
          <circle cx="3" cy="3" r="3"></circle>
        </g>
        <g transform="translate(420,196) scale(4.8066666666667)">
          <circle cx="3" cy="3" r="3"></circle>
        </g>
        <g transform="translate(448,196) scale(4.8066666666667)">
          <circle cx="3" cy="3" r="3"></circle>
        </g>
        <g transform="translate(476,196) scale(4.8066666666667)">
          <circle cx="3" cy="3" r="3"></circle>
        </g>
        <g transform="translate(504,196) scale(4.8066666666667)">
          <circle cx="3" cy="3" r="3"></circle>
        </g>
        <g transform="translate(560,196) scale(4.8066666666667)">
          <circle cx="3" cy="3" r="3"></circle>
        </g>
        <g transform="translate(280,224) scale(4.8066666666667)">
          <circle cx="3" cy="3" r="3"></circle>
        </g>
        <g transform="translate(336,224) scale(4.8066666666667)">
          <circle cx="3" cy="3" r="3"></circle>
        </g>
        <g transform="translate(392,224) scale(4.8066666666667)">
          <circle cx="3" cy="3" r="3"></circle>
        </g>
        <g transform="translate(448,224) scale(4.8066666666667)">
          <circle cx="3" cy="3" r="3"></circle>
        </g>
        <g transform="translate(504,224) scale(4.8066666666667)">
          <circle cx="3" cy="3" r="3"></circle>
        </g>
        <g transform="translate(560,224) scale(4.8066666666667)">
          <circle cx="3" cy="3" r="3"></circle>
        </g>
        <g transform="translate(616,224) scale(4.8066666666667)">
          <circle cx="3" cy="3" r="3"></circle>
        </g>
        <g transform="translate(280,252) scale(4.8066666666667)">
          <circle cx="3" cy="3" r="3"></circle>
        </g>
        <g transform="translate(364,252) scale(4.8066666666667)">
          <circle cx="3" cy="3" r="3"></circle>
        </g>
        <g transform="translate(420,252) scale(4.8066666666667)">
          <circle cx="3" cy="3" r="3"></circle>
        </g>
        <g transform="translate(448,252) scale(4.8066666666667)">
          <circle cx="3" cy="3" r="3"></circle>
        </g>
        <g transform="translate(476,252) scale(4.8066666666667)">
          <circle cx="3" cy="3" r="3"></circle>
        </g>
        <g transform="translate(616,252) scale(4.8066666666667)">
          <circle cx="3" cy="3" r="3"></circle>
        </g>
        <g transform="translate(112,280) scale(4.8066666666667)">
          <circle cx="3" cy="3" r="3"></circle>
        </g>
        <g transform="translate(140,280) scale(4.8066666666667)">
          <circle cx="3" cy="3" r="3"></circle>
        </g>
        <g transform="translate(168,280) scale(4.8066666666667)">
          <circle cx="3" cy="3" r="3"></circle>
        </g>
        <g transform="translate(224,280) scale(4.8066666666667)">
          <circle cx="3" cy="3" r="3"></circle>
        </g>
        <g transform="translate(280,280) scale(4.8066666666667)">
          <circle cx="3" cy="3" r="3"></circle>
        </g>
        <g transform="translate(336,280) scale(4.8066666666667)">
          <circle cx="3" cy="3" r="3"></circle>
        </g>
        <g transform="translate(364,280) scale(4.8066666666667)">
          <circle cx="3" cy="3" r="3"></circle>
        </g>
        <g transform="translate(392,280) scale(4.8066666666667)">
          <circle cx="3" cy="3" r="3"></circle>
        </g>
        <g transform="translate(420,280) scale(4.8066666666667)">
          <circle cx="3" cy="3" r="3"></circle>
        </g>
        <g transform="translate(476,280) scale(4.8066666666667)">
          <circle cx="3" cy="3" r="3"></circle>
        </g>
        <g transform="translate(504,280) scale(4.8066666666667)">
          <circle cx="3" cy="3" r="3"></circle>
        </g>
        <g transform="translate(560,280) scale(4.8066666666667)">
          <circle cx="3" cy="3" r="3"></circle>
        </g>
        <g transform="translate(616,280) scale(4.8066666666667)">
          <circle cx="3" cy="3" r="3"></circle>
        </g>
        <g transform="translate(644,280) scale(4.8066666666667)">
          <circle cx="3" cy="3" r="3"></circle>
        </g>
        <g transform="translate(672,280) scale(4.8066666666667)">
          <circle cx="3" cy="3" r="3"></circle>
        </g>
        <g transform="translate(700,280) scale(4.8066666666667)">
          <circle cx="3" cy="3" r="3"></circle>
        </g>
        <g transform="translate(784,280) scale(4.8066666666667)">
          <circle cx="3" cy="3" r="3"></circle>
        </g>
        <g transform="translate(812,280) scale(4.8066666666667)">
          <circle cx="3" cy="3" r="3"></circle>
        </g>
        <g transform="translate(840,280) scale(4.8066666666667)">
          <circle cx="3" cy="3" r="3"></circle>
        </g>
        <g transform="translate(112,308) scale(4.8066666666667)">
          <circle cx="3" cy="3" r="3"></circle>
        </g>
        <g transform="translate(196,308) scale(4.8066666666667)">
          <circle cx="3" cy="3" r="3"></circle>
        </g>
        <g transform="translate(280,308) scale(4.8066666666667)">
          <circle cx="3" cy="3" r="3"></circle>
        </g>
        <g transform="translate(364,308) scale(4.8066666666667)">
          <circle cx="3" cy="3" r="3"></circle>
        </g>
        <g transform="translate(392,308) scale(4.8066666666667)">
          <circle cx="3" cy="3" r="3"></circle>
        </g>
        <g transform="translate(420,308) scale(4.8066666666667)">
          <circle cx="3" cy="3" r="3"></circle>
        </g>
        <g transform="translate(448,308) scale(4.8066666666667)">
          <circle cx="3" cy="3" r="3"></circle>
        </g>
        <g transform="translate(476,308) scale(4.8066666666667)">
          <circle cx="3" cy="3" r="3"></circle>
        </g>
        <g transform="translate(504,308) scale(4.8066666666667)">
          <circle cx="3" cy="3" r="3"></circle>
        </g>
        <g transform="translate(644,308) scale(4.8066666666667)">
          <circle cx="3" cy="3" r="3"></circle>
        </g>
        <g transform="translate(728,308) scale(4.8066666666667)">
          <circle cx="3" cy="3" r="3"></circle>
        </g>
        <g transform="translate(756,308) scale(4.8066666666667)">
          <circle cx="3" cy="3" r="3"></circle>
        </g>
        <g transform="translate(784,308) scale(4.8066666666667)">
          <circle cx="3" cy="3" r="3"></circle>
        </g>
        <g transform="translate(840,308) scale(4.8066666666667)">
          <circle cx="3" cy="3" r="3"></circle>
        </g>
        <g transform="translate(140,336) scale(4.8066666666667)">
          <circle cx="3" cy="3" r="3"></circle>
        </g>
        <g transform="translate(224,336) scale(4.8066666666667)">
          <circle cx="3" cy="3" r="3"></circle>
        </g>
        <g transform="translate(252,336) scale(4.8066666666667)">
          <circle cx="3" cy="3" r="3"></circle>
        </g>
        <g transform="translate(336,336) scale(4.8066666666667)">
          <circle cx="3" cy="3" r="3"></circle>
        </g>
        <g transform="translate(532,336) scale(4.8066666666667)">
          <circle cx="3" cy="3" r="3"></circle>
        </g>
        <g transform="translate(616,336) scale(4.8066666666667)">
          <circle cx="3" cy="3" r="3"></circle>
        </g>
        <g transform="translate(672,336) scale(4.8066666666667)">
          <circle cx="3" cy="3" r="3"></circle>
        </g>
        <g transform="translate(700,336) scale(4.8066666666667)">
          <circle cx="3" cy="3" r="3"></circle>
        </g>
        <g transform="translate(756,336) scale(4.8066666666667)">
          <circle cx="3" cy="3" r="3"></circle>
        </g>
        <g transform="translate(784,336) scale(4.8066666666667)">
          <circle cx="3" cy="3" r="3"></circle>
        </g>
        <g transform="translate(56,364) scale(4.8066666666667)">
          <circle cx="3" cy="3" r="3"></circle>
        </g>
        <g transform="translate(140,364) scale(4.8066666666667)">
          <circle cx="3" cy="3" r="3"></circle>
        </g>
        <g transform="translate(168,364) scale(4.8066666666667)">
          <circle cx="3" cy="3" r="3"></circle>
        </g>
        <g transform="translate(392,364) scale(4.8066666666667)">
          <circle cx="3" cy="3" r="3"></circle>
        </g>
        <g transform="translate(532,364) scale(4.8066666666667)">
          <circle cx="3" cy="3" r="3"></circle>
        </g>
        <g transform="translate(672,364) scale(4.8066666666667)">
          <circle cx="3" cy="3" r="3"></circle>
        </g>
        <g transform="translate(700,364) scale(4.8066666666667)">
          <circle cx="3" cy="3" r="3"></circle>
        </g>
        <g transform="translate(812,364) scale(4.8066666666667)">
          <circle cx="3" cy="3" r="3"></circle>
        </g>
        <g transform="translate(84,392) scale(4.8066666666667)">
          <circle cx="3" cy="3" r="3"></circle>
        </g>
        <g transform="translate(224,392) scale(4.8066666666667)">
          <circle cx="3" cy="3" r="3"></circle>
        </g>
        <g transform="translate(252,392) scale(4.8066666666667)">
          <circle cx="3" cy="3" r="3"></circle>
        </g>
        <g transform="translate(280,392) scale(4.8066666666667)">
          <circle cx="3" cy="3" r="3"></circle>
        </g>
        <g transform="translate(364,392) scale(4.8066666666667)">
          <circle cx="3" cy="3" r="3"></circle>
        </g>
        <g transform="translate(420,392) scale(4.8066666666667)">
          <circle cx="3" cy="3" r="3"></circle>
        </g>
        <g transform="translate(476,392) scale(4.8066666666667)">
          <circle cx="3" cy="3" r="3"></circle>
        </g>
        <g transform="translate(532,392) scale(4.8066666666667)">
          <circle cx="3" cy="3" r="3"></circle>
        </g>
        <g transform="translate(616,392) scale(4.8066666666667)">
          <circle cx="3" cy="3" r="3"></circle>
        </g>
        <g transform="translate(644,392) scale(4.8066666666667)">
          <circle cx="3" cy="3" r="3"></circle>
        </g>
        <g transform="translate(784,392) scale(4.8066666666667)">
          <circle cx="3" cy="3" r="3"></circle>
        </g>
        <g transform="translate(812,392) scale(4.8066666666667)">
          <circle cx="3" cy="3" r="3"></circle>
        </g>
        <g transform="translate(840,392) scale(4.8066666666667)">
          <circle cx="3" cy="3" r="3"></circle>
        </g>
        <g transform="translate(56,420) scale(4.8066666666667)">
          <circle cx="3" cy="3" r="3"></circle>
        </g>
        <g transform="translate(112,420) scale(4.8066666666667)">
          <circle cx="3" cy="3" r="3"></circle>
        </g>
        <g transform="translate(168,420) scale(4.8066666666667)">
          <circle cx="3" cy="3" r="3"></circle>
        </g>
        <g transform="translate(252,420) scale(4.8066666666667)">
          <circle cx="3" cy="3" r="3"></circle>
        </g>
        <g transform="translate(308,420) scale(4.8066666666667)">
          <circle cx="3" cy="3" r="3"></circle>
        </g>
        <g transform="translate(392,420) scale(4.8066666666667)">
          <circle cx="3" cy="3" r="3"></circle>
        </g>
        <g transform="translate(420,420) scale(4.8066666666667)">
          <circle cx="3" cy="3" r="3"></circle>
        </g>
        <g transform="translate(476,420) scale(4.8066666666667)">
          <circle cx="3" cy="3" r="3"></circle>
        </g>
        <g transform="translate(532,420) scale(4.8066666666667)">
          <circle cx="3" cy="3" r="3"></circle>
        </g>
        <g transform="translate(588,420) scale(4.8066666666667)">
          <circle cx="3" cy="3" r="3"></circle>
        </g>
        <g transform="translate(616,420) scale(4.8066666666667)">
          <circle cx="3" cy="3" r="3"></circle>
        </g>
        <g transform="translate(644,420) scale(4.8066666666667)">
          <circle cx="3" cy="3" r="3"></circle>
        </g>
        <g transform="translate(672,420) scale(4.8066666666667)">
          <circle cx="3" cy="3" r="3"></circle>
        </g>
        <g transform="translate(728,420) scale(4.8066666666667)">
          <circle cx="3" cy="3" r="3"></circle>
        </g>
        <g transform="translate(756,420) scale(4.8066666666667)">
          <circle cx="3" cy="3" r="3"></circle>
        </g>
        <g transform="translate(812,420) scale(4.8066666666667)">
          <circle cx="3" cy="3" r="3"></circle>
        </g>
        <g transform="translate(840,420) scale(4.8066666666667)">
          <circle cx="3" cy="3" r="3"></circle>
        </g>
        <g transform="translate(84,448) scale(4.8066666666667)">
          <circle cx="3" cy="3" r="3"></circle>
        </g>
        <g transform="translate(196,448) scale(4.8066666666667)">
          <circle cx="3" cy="3" r="3"></circle>
        </g>
        <g transform="translate(224,448) scale(4.8066666666667)">
          <circle cx="3" cy="3" r="3"></circle>
        </g>
        <g transform="translate(280,448) scale(4.8066666666667)">
          <circle cx="3" cy="3" r="3"></circle>
        </g>
        <g transform="translate(308,448) scale(4.8066666666667)">
          <circle cx="3" cy="3" r="3"></circle>
        </g>
        <g transform="translate(420,448) scale(4.8066666666667)">
          <circle cx="3" cy="3" r="3"></circle>
        </g>
        <g transform="translate(448,448) scale(4.8066666666667)">
          <circle cx="3" cy="3" r="3"></circle>
        </g>
        <g transform="translate(476,448) scale(4.8066666666667)">
          <circle cx="3" cy="3" r="3"></circle>
        </g>
        <g transform="translate(532,448) scale(4.8066666666667)">
          <circle cx="3" cy="3" r="3"></circle>
        </g>
        <g transform="translate(560,448) scale(4.8066666666667)">
          <circle cx="3" cy="3" r="3"></circle>
        </g>
        <g transform="translate(672,448) scale(4.8066666666667)">
          <circle cx="3" cy="3" r="3"></circle>
        </g>
        <g transform="translate(56,476) scale(4.8066666666667)">
          <circle cx="3" cy="3" r="3"></circle>
        </g>
        <g transform="translate(140,476) scale(4.8066666666667)">
          <circle cx="3" cy="3" r="3"></circle>
        </g>
        <g transform="translate(168,476) scale(4.8066666666667)">
          <circle cx="3" cy="3" r="3"></circle>
        </g>
        <g transform="translate(196,476) scale(4.8066666666667)">
          <circle cx="3" cy="3" r="3"></circle>
        </g>
        <g transform="translate(252,476) scale(4.8066666666667)">
          <circle cx="3" cy="3" r="3"></circle>
        </g>
        <g transform="translate(280,476) scale(4.8066666666667)">
          <circle cx="3" cy="3" r="3"></circle>
        </g>
        <g transform="translate(336,476) scale(4.8066666666667)">
          <circle cx="3" cy="3" r="3"></circle>
        </g>
        <g transform="translate(364,476) scale(4.8066666666667)">
          <circle cx="3" cy="3" r="3"></circle>
        </g>
        <g transform="translate(392,476) scale(4.8066666666667)">
          <circle cx="3" cy="3" r="3"></circle>
        </g>
        <g transform="translate(448,476) scale(4.8066666666667)">
          <circle cx="3" cy="3" r="3"></circle>
        </g>
        <g transform="translate(504,476) scale(4.8066666666667)">
          <circle cx="3" cy="3" r="3"></circle>
        </g>
        <g transform="translate(616,476) scale(4.8066666666667)">
          <circle cx="3" cy="3" r="3"></circle>
        </g>
        <g transform="translate(644,476) scale(4.8066666666667)">
          <circle cx="3" cy="3" r="3"></circle>
        </g>
        <g transform="translate(672,476) scale(4.8066666666667)">
          <circle cx="3" cy="3" r="3"></circle>
        </g>
        <g transform="translate(756,476) scale(4.8066666666667)">
          <circle cx="3" cy="3" r="3"></circle>
        </g>
        <g transform="translate(812,476) scale(4.8066666666667)">
          <circle cx="3" cy="3" r="3"></circle>
        </g>
        <g transform="translate(84,504) scale(4.8066666666667)">
          <circle cx="3" cy="3" r="3"></circle>
        </g>
        <g transform="translate(168,504) scale(4.8066666666667)">
          <circle cx="3" cy="3" r="3"></circle>
        </g>
        <g transform="translate(224,504) scale(4.8066666666667)">
          <circle cx="3" cy="3" r="3"></circle>
        </g>
        <g transform="translate(252,504) scale(4.8066666666667)">
          <circle cx="3" cy="3" r="3"></circle>
        </g>
        <g transform="translate(280,504) scale(4.8066666666667)">
          <circle cx="3" cy="3" r="3"></circle>
        </g>
        <g transform="translate(308,504) scale(4.8066666666667)">
          <circle cx="3" cy="3" r="3"></circle>
        </g>
        <g transform="translate(336,504) scale(4.8066666666667)">
          <circle cx="3" cy="3" r="3"></circle>
        </g>
        <g transform="translate(392,504) scale(4.8066666666667)">
          <circle cx="3" cy="3" r="3"></circle>
        </g>
        <g transform="translate(448,504) scale(4.8066666666667)">
          <circle cx="3" cy="3" r="3"></circle>
        </g>
        <g transform="translate(476,504) scale(4.8066666666667)">
          <circle cx="3" cy="3" r="3"></circle>
        </g>
        <g transform="translate(504,504) scale(4.8066666666667)">
          <circle cx="3" cy="3" r="3"></circle>
        </g>
        <g transform="translate(560,504) scale(4.8066666666667)">
          <circle cx="3" cy="3" r="3"></circle>
        </g>
        <g transform="translate(672,504) scale(4.8066666666667)">
          <circle cx="3" cy="3" r="3"></circle>
        </g>
        <g transform="translate(756,504) scale(4.8066666666667)">
          <circle cx="3" cy="3" r="3"></circle>
        </g>
        <g transform="translate(784,504) scale(4.8066666666667)">
          <circle cx="3" cy="3" r="3"></circle>
        </g>
        <g transform="translate(56,532) scale(4.8066666666667)">
          <circle cx="3" cy="3" r="3"></circle>
        </g>
        <g transform="translate(140,532) scale(4.8066666666667)">
          <circle cx="3" cy="3" r="3"></circle>
        </g>
        <g transform="translate(252,532) scale(4.8066666666667)">
          <circle cx="3" cy="3" r="3"></circle>
        </g>
        <g transform="translate(280,532) scale(4.8066666666667)">
          <circle cx="3" cy="3" r="3"></circle>
        </g>
        <g transform="translate(336,532) scale(4.8066666666667)">
          <circle cx="3" cy="3" r="3"></circle>
        </g>
        <g transform="translate(364,532) scale(4.8066666666667)">
          <circle cx="3" cy="3" r="3"></circle>
        </g>
        <g transform="translate(392,532) scale(4.8066666666667)">
          <circle cx="3" cy="3" r="3"></circle>
        </g>
        <g transform="translate(504,532) scale(4.8066666666667)">
          <circle cx="3" cy="3" r="3"></circle>
        </g>
        <g transform="translate(616,532) scale(4.8066666666667)">
          <circle cx="3" cy="3" r="3"></circle>
        </g>
        <g transform="translate(644,532) scale(4.8066666666667)">
          <circle cx="3" cy="3" r="3"></circle>
        </g>
        <g transform="translate(728,532) scale(4.8066666666667)">
          <circle cx="3" cy="3" r="3"></circle>
        </g>
        <g transform="translate(756,532) scale(4.8066666666667)">
          <circle cx="3" cy="3" r="3"></circle>
        </g>
        <g transform="translate(784,532) scale(4.8066666666667)">
          <circle cx="3" cy="3" r="3"></circle>
        </g>
        <g transform="translate(812,532) scale(4.8066666666667)">
          <circle cx="3" cy="3" r="3"></circle>
        </g>
        <g transform="translate(840,532) scale(4.8066666666667)">
          <circle cx="3" cy="3" r="3"></circle>
        </g>
        <g transform="translate(56,560) scale(4.8066666666667)">
          <circle cx="3" cy="3" r="3"></circle>
        </g>
        <g transform="translate(168,560) scale(4.8066666666667)">
          <circle cx="3" cy="3" r="3"></circle>
        </g>
        <g transform="translate(196,560) scale(4.8066666666667)">
          <circle cx="3" cy="3" r="3"></circle>
        </g>
        <g transform="translate(224,560) scale(4.8066666666667)">
          <circle cx="3" cy="3" r="3"></circle>
        </g>
        <g transform="translate(392,560) scale(4.8066666666667)">
          <circle cx="3" cy="3" r="3"></circle>
        </g>
        <g transform="translate(420,560) scale(4.8066666666667)">
          <circle cx="3" cy="3" r="3"></circle>
        </g>
        <g transform="translate(560,560) scale(4.8066666666667)">
          <circle cx="3" cy="3" r="3"></circle>
        </g>
        <g transform="translate(588,560) scale(4.8066666666667)">
          <circle cx="3" cy="3" r="3"></circle>
        </g>
        <g transform="translate(672,560) scale(4.8066666666667)">
          <circle cx="3" cy="3" r="3"></circle>
        </g>
        <g transform="translate(728,560) scale(4.8066666666667)">
          <circle cx="3" cy="3" r="3"></circle>
        </g>
        <g transform="translate(784,560) scale(4.8066666666667)">
          <circle cx="3" cy="3" r="3"></circle>
        </g>
        <g transform="translate(56,588) scale(4.8066666666667)">
          <circle cx="3" cy="3" r="3"></circle>
        </g>
        <g transform="translate(112,588) scale(4.8066666666667)">
          <circle cx="3" cy="3" r="3"></circle>
        </g>
        <g transform="translate(140,588) scale(4.8066666666667)">
          <circle cx="3" cy="3" r="3"></circle>
        </g>
        <g transform="translate(252,588) scale(4.8066666666667)">
          <circle cx="3" cy="3" r="3"></circle>
        </g>
        <g transform="translate(308,588) scale(4.8066666666667)">
          <circle cx="3" cy="3" r="3"></circle>
        </g>
        <g transform="translate(336,588) scale(4.8066666666667)">
          <circle cx="3" cy="3" r="3"></circle>
        </g>
        <g transform="translate(392,588) scale(4.8066666666667)">
          <circle cx="3" cy="3" r="3"></circle>
        </g>
        <g transform="translate(420,588) scale(4.8066666666667)">
          <circle cx="3" cy="3" r="3"></circle>
        </g>
        <g transform="translate(448,588) scale(4.8066666666667)">
          <circle cx="3" cy="3" r="3"></circle>
        </g>
        <g transform="translate(532,588) scale(4.8066666666667)">
          <circle cx="3" cy="3" r="3"></circle>
        </g>
        <g transform="translate(588,588) scale(4.8066666666667)">
          <circle cx="3" cy="3" r="3"></circle>
        </g>
        <g transform="translate(616,588) scale(4.8066666666667)">
          <circle cx="3" cy="3" r="3"></circle>
        </g>
        <g transform="translate(672,588) scale(4.8066666666667)">
          <circle cx="3" cy="3" r="3"></circle>
        </g>
        <g transform="translate(700,588) scale(4.8066666666667)">
          <circle cx="3" cy="3" r="3"></circle>
        </g>
        <g transform="translate(728,588) scale(4.8066666666667)">
          <circle cx="3" cy="3" r="3"></circle>
        </g>
        <g transform="translate(756,588) scale(4.8066666666667)">
          <circle cx="3" cy="3" r="3"></circle>
        </g>
        <g transform="translate(812,588) scale(4.8066666666667)">
          <circle cx="3" cy="3" r="3"></circle>
        </g>
        <g transform="translate(840,588) scale(4.8066666666667)">
          <circle cx="3" cy="3" r="3"></circle>
        </g>
        <g transform="translate(56,616) scale(4.8066666666667)">
          <circle cx="3" cy="3" r="3"></circle>
        </g>
        <g transform="translate(140,616) scale(4.8066666666667)">
          <circle cx="3" cy="3" r="3"></circle>
        </g>
        <g transform="translate(196,616) scale(4.8066666666667)">
          <circle cx="3" cy="3" r="3"></circle>
        </g>
        <g transform="translate(224,616) scale(4.8066666666667)">
          <circle cx="3" cy="3" r="3"></circle>
        </g>
        <g transform="translate(252,616) scale(4.8066666666667)">
          <circle cx="3" cy="3" r="3"></circle>
        </g>
        <g transform="translate(280,616) scale(4.8066666666667)">
          <circle cx="3" cy="3" r="3"></circle>
        </g>
        <g transform="translate(336,616) scale(4.8066666666667)">
          <circle cx="3" cy="3" r="3"></circle>
        </g>
        <g transform="translate(392,616) scale(4.8066666666667)">
          <circle cx="3" cy="3" r="3"></circle>
        </g>
        <g transform="translate(420,616) scale(4.8066666666667)">
          <circle cx="3" cy="3" r="3"></circle>
        </g>
        <g transform="translate(476,616) scale(4.8066666666667)">
          <circle cx="3" cy="3" r="3"></circle>
        </g>
        <g transform="translate(532,616) scale(4.8066666666667)">
          <circle cx="3" cy="3" r="3"></circle>
        </g>
        <g transform="translate(588,616) scale(4.8066666666667)">
          <circle cx="3" cy="3" r="3"></circle>
        </g>
        <g transform="translate(616,616) scale(4.8066666666667)">
          <circle cx="3" cy="3" r="3"></circle>
        </g>
        <g transform="translate(644,616) scale(4.8066666666667)">
          <circle cx="3" cy="3" r="3"></circle>
        </g>
        <g transform="translate(672,616) scale(4.8066666666667)">
          <circle cx="3" cy="3" r="3"></circle>
        </g>
        <g transform="translate(700,616) scale(4.8066666666667)">
          <circle cx="3" cy="3" r="3"></circle>
        </g>
        <g transform="translate(728,616) scale(4.8066666666667)">
          <circle cx="3" cy="3" r="3"></circle>
        </g>
        <g transform="translate(756,616) scale(4.8066666666667)">
          <circle cx="3" cy="3" r="3"></circle>
        </g>
        <g transform="translate(784,616) scale(4.8066666666667)">
          <circle cx="3" cy="3" r="3"></circle>
        </g>
        <g transform="translate(812,616) scale(4.8066666666667)">
          <circle cx="3" cy="3" r="3"></circle>
        </g>
        <g transform="translate(280,644) scale(4.8066666666667)">
          <circle cx="3" cy="3" r="3"></circle>
        </g>
        <g transform="translate(336,644) scale(4.8066666666667)">
          <circle cx="3" cy="3" r="3"></circle>
        </g>
        <g transform="translate(392,644) scale(4.8066666666667)">
          <circle cx="3" cy="3" r="3"></circle>
        </g>
        <g transform="translate(532,644) scale(4.8066666666667)">
          <circle cx="3" cy="3" r="3"></circle>
        </g>
        <g transform="translate(588,644) scale(4.8066666666667)">
          <circle cx="3" cy="3" r="3"></circle>
        </g>
        <g transform="translate(616,644) scale(4.8066666666667)">
          <circle cx="3" cy="3" r="3"></circle>
        </g>
        <g transform="translate(728,644) scale(4.8066666666667)">
          <circle cx="3" cy="3" r="3"></circle>
        </g>
        <g transform="translate(756,644) scale(4.8066666666667)">
          <circle cx="3" cy="3" r="3"></circle>
        </g>
        <g transform="translate(812,644) scale(4.8066666666667)">
          <circle cx="3" cy="3" r="3"></circle>
        </g>
        <g transform="translate(840,644) scale(4.8066666666667)">
          <circle cx="3" cy="3" r="3"></circle>
        </g>
        <g transform="translate(308,672) scale(4.8066666666667)">
          <circle cx="3" cy="3" r="3"></circle>
        </g>
        <g transform="translate(364,672) scale(4.8066666666667)">
          <circle cx="3" cy="3" r="3"></circle>
        </g>
        <g transform="translate(448,672) scale(4.8066666666667)">
          <circle cx="3" cy="3" r="3"></circle>
        </g>
        <g transform="translate(504,672) scale(4.8066666666667)">
          <circle cx="3" cy="3" r="3"></circle>
        </g>
        <g transform="translate(532,672) scale(4.8066666666667)">
          <circle cx="3" cy="3" r="3"></circle>
        </g>
        <g transform="translate(588,672) scale(4.8066666666667)">
          <circle cx="3" cy="3" r="3"></circle>
        </g>
        <g transform="translate(616,672) scale(4.8066666666667)">
          <circle cx="3" cy="3" r="3"></circle>
        </g>
        <g transform="translate(672,672) scale(4.8066666666667)">
          <circle cx="3" cy="3" r="3"></circle>
        </g>
        <g transform="translate(728,672) scale(4.8066666666667)">
          <circle cx="3" cy="3" r="3"></circle>
        </g>
        <g transform="translate(420,700) scale(4.8066666666667)">
          <circle cx="3" cy="3" r="3"></circle>
        </g>
        <g transform="translate(504,700) scale(4.8066666666667)">
          <circle cx="3" cy="3" r="3"></circle>
        </g>
        <g transform="translate(532,700) scale(4.8066666666667)">
          <circle cx="3" cy="3" r="3"></circle>
        </g>
        <g transform="translate(588,700) scale(4.8066666666667)">
          <circle cx="3" cy="3" r="3"></circle>
        </g>
        <g transform="translate(616,700) scale(4.8066666666667)">
          <circle cx="3" cy="3" r="3"></circle>
        </g>
        <g transform="translate(728,700) scale(4.8066666666667)">
          <circle cx="3" cy="3" r="3"></circle>
        </g>
        <g transform="translate(756,700) scale(4.8066666666667)">
          <circle cx="3" cy="3" r="3"></circle>
        </g>
        <g transform="translate(812,700) scale(4.8066666666667)">
          <circle cx="3" cy="3" r="3"></circle>
        </g>
        <g transform="translate(840,700) scale(4.8066666666667)">
          <circle cx="3" cy="3" r="3"></circle>
        </g>
        <g transform="translate(280,728) scale(4.8066666666667)">
          <circle cx="3" cy="3" r="3"></circle>
        </g>
        <g transform="translate(308,728) scale(4.8066666666667)">
          <circle cx="3" cy="3" r="3"></circle>
        </g>
        <g transform="translate(336,728) scale(4.8066666666667)">
          <circle cx="3" cy="3" r="3"></circle>
        </g>
        <g transform="translate(364,728) scale(4.8066666666667)">
          <circle cx="3" cy="3" r="3"></circle>
        </g>
        <g transform="translate(448,728) scale(4.8066666666667)">
          <circle cx="3" cy="3" r="3"></circle>
        </g>
        <g transform="translate(476,728) scale(4.8066666666667)">
          <circle cx="3" cy="3" r="3"></circle>
        </g>
        <g transform="translate(616,728) scale(4.8066666666667)">
          <circle cx="3" cy="3" r="3"></circle>
        </g>
        <g transform="translate(644,728) scale(4.8066666666667)">
          <circle cx="3" cy="3" r="3"></circle>
        </g>
        <g transform="translate(672,728) scale(4.8066666666667)">
          <circle cx="3" cy="3" r="3"></circle>
        </g>
        <g transform="translate(700,728) scale(4.8066666666667)">
          <circle cx="3" cy="3" r="3"></circle>
        </g>
        <g transform="translate(728,728) scale(4.8066666666667)">
          <circle cx="3" cy="3" r="3"></circle>
        </g>
        <g transform="translate(756,728) scale(4.8066666666667)">
          <circle cx="3" cy="3" r="3"></circle>
        </g>
        <g transform="translate(784,728) scale(4.8066666666667)">
          <circle cx="3" cy="3" r="3"></circle>
        </g>
        <g transform="translate(840,728) scale(4.8066666666667)">
          <circle cx="3" cy="3" r="3"></circle>
        </g>
        <g transform="translate(280,756) scale(4.8066666666667)">
          <circle cx="3" cy="3" r="3"></circle>
        </g>
        <g transform="translate(308,756) scale(4.8066666666667)">
          <circle cx="3" cy="3" r="3"></circle>
        </g>
        <g transform="translate(336,756) scale(4.8066666666667)">
          <circle cx="3" cy="3" r="3"></circle>
        </g>
        <g transform="translate(392,756) scale(4.8066666666667)">
          <circle cx="3" cy="3" r="3"></circle>
        </g>
        <g transform="translate(504,756) scale(4.8066666666667)">
          <circle cx="3" cy="3" r="3"></circle>
        </g>
        <g transform="translate(532,756) scale(4.8066666666667)">
          <circle cx="3" cy="3" r="3"></circle>
        </g>
        <g transform="translate(588,756) scale(4.8066666666667)">
          <circle cx="3" cy="3" r="3"></circle>
        </g>
        <g transform="translate(700,756) scale(4.8066666666667)">
          <circle cx="3" cy="3" r="3"></circle>
        </g>
        <g transform="translate(280,784) scale(4.8066666666667)">
          <circle cx="3" cy="3" r="3"></circle>
        </g>
        <g transform="translate(308,784) scale(4.8066666666667)">
          <circle cx="3" cy="3" r="3"></circle>
        </g>
        <g transform="translate(336,784) scale(4.8066666666667)">
          <circle cx="3" cy="3" r="3"></circle>
        </g>
        <g transform="translate(504,784) scale(4.8066666666667)">
          <circle cx="3" cy="3" r="3"></circle>
        </g>
        <g transform="translate(532,784) scale(4.8066666666667)">
          <circle cx="3" cy="3" r="3"></circle>
        </g>
        <g transform="translate(560,784) scale(4.8066666666667)">
          <circle cx="3" cy="3" r="3"></circle>
        </g>
        <g transform="translate(644,784) scale(4.8066666666667)">
          <circle cx="3" cy="3" r="3"></circle>
        </g>
        <g transform="translate(672,784) scale(4.8066666666667)">
          <circle cx="3" cy="3" r="3"></circle>
        </g>
        <g transform="translate(728,784) scale(4.8066666666667)">
          <circle cx="3" cy="3" r="3"></circle>
        </g>
        <g transform="translate(812,784) scale(4.8066666666667)">
          <circle cx="3" cy="3" r="3"></circle>
        </g>
        <g transform="translate(308,812) scale(4.8066666666667)">
          <circle cx="3" cy="3" r="3"></circle>
        </g>
        <g transform="translate(336,812) scale(4.8066666666667)">
          <circle cx="3" cy="3" r="3"></circle>
        </g>
        <g transform="translate(364,812) scale(4.8066666666667)">
          <circle cx="3" cy="3" r="3"></circle>
        </g>
        <g transform="translate(392,812) scale(4.8066666666667)">
          <circle cx="3" cy="3" r="3"></circle>
        </g>
        <g transform="translate(448,812) scale(4.8066666666667)">
          <circle cx="3" cy="3" r="3"></circle>
        </g>
        <g transform="translate(504,812) scale(4.8066666666667)">
          <circle cx="3" cy="3" r="3"></circle>
        </g>
        <g transform="translate(532,812) scale(4.8066666666667)">
          <circle cx="3" cy="3" r="3"></circle>
        </g>
        <g transform="translate(588,812) scale(4.8066666666667)">
          <circle cx="3" cy="3" r="3"></circle>
        </g>
        <g transform="translate(644,812) scale(4.8066666666667)">
          <circle cx="3" cy="3" r="3"></circle>
        </g>
        <g transform="translate(728,812) scale(4.8066666666667)">
          <circle cx="3" cy="3" r="3"></circle>
        </g>
        <g transform="translate(756,812) scale(4.8066666666667)">
          <circle cx="3" cy="3" r="3"></circle>
        </g>
        <g transform="translate(812,812) scale(4.8066666666667)">
          <circle cx="3" cy="3" r="3"></circle>
        </g>
        <g transform="translate(308,840) scale(4.8066666666667)">
          <circle cx="3" cy="3" r="3"></circle>
        </g>
        <g transform="translate(336,840) scale(4.8066666666667)">
          <circle cx="3" cy="3" r="3"></circle>
        </g>
        <g transform="translate(448,840) scale(4.8066666666667)">
          <circle cx="3" cy="3" r="3"></circle>
        </g>
        <g transform="translate(476,840) scale(4.8066666666667)">
          <circle cx="3" cy="3" r="3"></circle>
        </g>
        <g transform="translate(504,840) scale(4.8066666666667)">
          <circle cx="3" cy="3" r="3"></circle>
        </g>
        <g transform="translate(560,840) scale(4.8066666666667)">
          <circle cx="3" cy="3" r="3"></circle>
        </g>
        <g transform="translate(728,840) scale(4.8066666666667)">
          <circle cx="3" cy="3" r="3"></circle>
        </g>
        <g transform="translate(756,840) scale(4.8066666666667)">
          <circle cx="3" cy="3" r="3"></circle>
        </g>
        <g transform="translate(784,840) scale(4.8066666666667)">
          <circle cx="3" cy="3" r="3"></circle>
        </g>
        <g transform="translate(56,56)">
          <g transform="scale(14)">
            <path d="M0,0v14h14V0H0z M12,12H2V2h10V12z"></path>
          </g>
        </g>
        <g transform="translate(672,56)">
          <g transform="scale(14)">
            <path d="M0,0v14h14V0H0z M12,12H2V2h10V12z"></path>
          </g>
        </g>
        <g transform="translate(56,672)">
          <g transform="scale(14)">
            <path d="M0,0v14h14V0H0z M12,12H2V2h10V12z"></path>
          </g>
        </g>
        <g transform="translate(112,112)">
          <g transform="scale(14)">
            <rect width="6" height="6"></rect>
          </g>
        </g>
        <g transform="translate(728,112)">
          <g transform="scale(14)">
            <rect width="6" height="6"></rect>
          </g>
        </g>
        <g transform="translate(112,728)">
          <g transform="scale(14)">
            <rect width="6" height="6"></rect>
          </g>
        </g>
      </g>
    </g>
  </g>
</svg>