<svg width="300" height="300" viewBox="0 0 300 300" class="css-1j8o68f"><defs id="SvgjsDefs3466"><linearGradient gradientUnits="userSpaceOnUse" x1="24.95" y1="3.65" x2="24.95" y2="46.25" id="gradient-0"><stop offset="0" style="stop-color: rgba(187, 218, 85, 1)"></stop><stop offset="1" style="stop-color: rgba(135, 165, 36, 1)"></stop></linearGradient></defs><rect width="300" height="300" style="" data-bx-origin="0 0"></rect><g id="SvgjsG3467" featurekey="rootContainer" transform="matrix(6, 0, 0, 6, 0.299996, 0)" fill="#f6f6f6" data-bx-origin="0 0"><path xmlns="http://www.w3.org/2000/svg" d="M24.95 0a25 25 0 1 0 25 25 25 25 0 0 0-25-25zm0 46.91a22 22 0 1 1 22-22 22 22 0 0 1-22 21.99z" style="paint-order: fill; fill: rgb(255, 255, 255);"></path><path xmlns="http://www.w3.org/2000/svg" d="M24.95 3.65a21.3 21.3 0 1 0 21.3 21.3 21.33 21.33 0 0 0-21.3-21.3z" style="paint-order: fill; fill: rgb(255, 255, 255);"></path></g>  <path style="fill: rgb(216, 216, 216); stroke: rgb(0, 0, 0);" d="M 337.033 146.093 L 327.52 183.956"></path></svg>