<svg width="80" height="80" class="css-1j8o68f">
  <g xmlns="http://www.w3.org/2000/svg" xml:space="preserve" data-bx-origin="0 0">
    <circle cx="3" cy="3" r="3" transform="translate(22.046) scale(.47307)"/>
    <circle cx="3" cy="3" r="3" transform="translate(24.802) scale(.47307)"/>
    <circle cx="3" cy="3" r="3" transform="translate(30.313) scale(.47307)"/>
    <circle cx="3" cy="3" r="3" transform="translate(33.07) scale(.47307)"/>
    <circle cx="3" cy="3" r="3" transform="translate(49.604) scale(.47307)"/>
    <circle cx="3" cy="3" r="3" transform="translate(55.115) scale(.47307)"/>
    <circle cx="3" cy="3" r="3" transform="translate(22.046 2.756) scale(.47307)"/>
    <circle cx="3" cy="3" r="3" transform="translate(27.558 2.756) scale(.47307)"/>
    <circle cx="3" cy="3" r="3" transform="translate(30.313 2.756) scale(.47307)"/>
    <circle cx="3" cy="3" r="3" transform="translate(35.825 2.756) scale(.47307)"/>
    <circle cx="3" cy="3" r="3" transform="translate(52.36 2.756) scale(.47307)"/>
    <circle cx="3" cy="3" r="3" transform="translate(22.046 5.512) scale(.47307)"/>
    <circle cx="3" cy="3" r="3" transform="translate(24.802 5.512) scale(.47307)"/>
    <circle cx="3" cy="3" r="3" transform="translate(27.558 5.512) scale(.47307)"/>
    <circle cx="3" cy="3" r="3" transform="translate(44.092 5.512) scale(.47307)"/>
    <circle cx="3" cy="3" r="3" transform="translate(52.36 5.512) scale(.47307)"/>
    <circle cx="3" cy="3" r="3" transform="translate(55.115 5.512) scale(.47307)"/>
    <circle cx="3" cy="3" r="3" transform="translate(30.313 8.267) scale(.47307)"/>
    <circle cx="3" cy="3" r="3" transform="translate(33.07 8.267) scale(.47307)"/>
    <circle cx="3" cy="3" r="3" transform="translate(38.58 8.267) scale(.47307)"/>
    <circle cx="3" cy="3" r="3" transform="translate(46.848 8.267) scale(.47307)"/>
    <circle cx="3" cy="3" r="3" transform="translate(52.36 8.267) scale(.47307)"/>
    <circle cx="3" cy="3" r="3" transform="translate(24.802 11.023) scale(.47307)"/>
    <circle cx="3" cy="3" r="3" transform="translate(27.558 11.023) scale(.47307)"/>
    <circle cx="3" cy="3" r="3" transform="translate(30.313 11.023) scale(.47307)"/>
    <circle cx="3" cy="3" r="3" transform="translate(35.825 11.023) scale(.47307)"/>
    <circle cx="3" cy="3" r="3" transform="translate(38.58 11.023) scale(.47307)"/>
    <circle cx="3" cy="3" r="3" transform="translate(41.336 11.023) scale(.47307)"/>
    <circle cx="3" cy="3" r="3" transform="translate(44.092 11.023) scale(.47307)"/>
    <circle cx="3" cy="3" r="3" transform="translate(49.604 11.023) scale(.47307)"/>
    <circle cx="3" cy="3" r="3" transform="translate(52.36 11.023) scale(.47307)"/>
    <circle cx="3" cy="3" r="3" transform="translate(55.115 11.023) scale(.47307)"/>
    <circle cx="3" cy="3" r="3" transform="translate(22.046 13.779) scale(.47307)"/>
    <circle cx="3" cy="3" r="3" transform="translate(33.07 13.779) scale(.47307)"/>
    <circle cx="3" cy="3" r="3" transform="translate(35.825 13.779) scale(.47307)"/>
    <circle cx="3" cy="3" r="3" transform="translate(38.58 13.779) scale(.47307)"/>
    <circle cx="3" cy="3" r="3" transform="translate(41.336 13.779) scale(.47307)"/>
    <circle cx="3" cy="3" r="3" transform="translate(44.092 13.779) scale(.47307)"/>
    <circle cx="3" cy="3" r="3" transform="translate(49.604 13.779) scale(.47307)"/>
    <circle cx="3" cy="3" r="3" transform="translate(22.046 16.535) scale(.47307)"/>
    <circle cx="3" cy="3" r="3" transform="translate(27.558 16.535) scale(.47307)"/>
    <circle cx="3" cy="3" r="3" transform="translate(33.07 16.535) scale(.47307)"/>
    <circle cx="3" cy="3" r="3" transform="translate(38.58 16.535) scale(.47307)"/>
    <circle cx="3" cy="3" r="3" transform="translate(44.092 16.535) scale(.47307)"/>
    <circle cx="3" cy="3" r="3" transform="translate(49.604 16.535) scale(.47307)"/>
    <circle cx="3" cy="3" r="3" transform="translate(55.115 16.535) scale(.47307)"/>
    <circle cx="3" cy="3" r="3" transform="translate(22.046 19.29) scale(.47307)"/>
    <circle cx="3" cy="3" r="3" transform="translate(30.313 19.29) scale(.47307)"/>
    <circle cx="3" cy="3" r="3" transform="translate(35.825 19.29) scale(.47307)"/>
    <circle cx="3" cy="3" r="3" transform="translate(38.58 19.29) scale(.47307)"/>
    <circle cx="3" cy="3" r="3" transform="translate(41.336 19.29) scale(.47307)"/>
    <circle cx="3" cy="3" r="3" transform="translate(55.115 19.29) scale(.47307)"/>
    <circle cx="3" cy="3" r="3" transform="translate(5.512 22.046) scale(.47307)"/>
    <circle cx="3" cy="3" r="3" transform="translate(8.267 22.046) scale(.47307)"/>
    <circle cx="3" cy="3" r="3" transform="translate(11.023 22.046) scale(.47307)"/>
    <circle cx="3" cy="3" r="3" transform="translate(16.535 22.046) scale(.47307)"/>
    <circle cx="3" cy="3" r="3" transform="translate(22.046 22.046) scale(.47307)"/>
    <circle cx="3" cy="3" r="3" transform="translate(27.558 22.046) scale(.47307)"/>
    <circle cx="3" cy="3" r="3" transform="translate(30.313 22.046) scale(.47307)"/>
    <circle cx="3" cy="3" r="3" transform="translate(33.07 22.046) scale(.47307)"/>
    <circle cx="3" cy="3" r="3" transform="translate(35.825 22.046) scale(.47307)"/>
    <circle cx="3" cy="3" r="3" transform="translate(41.336 22.046) scale(.47307)"/>
    <circle cx="3" cy="3" r="3" transform="translate(44.092 22.046) scale(.47307)"/>
    <circle cx="3" cy="3" r="3" transform="translate(49.604 22.046) scale(.47307)"/>
    <circle cx="3" cy="3" r="3" transform="translate(55.115 22.046) scale(.47307)"/>
    <circle cx="3" cy="3" r="3" transform="translate(57.871 22.046) scale(.47307)"/>
    <circle cx="3" cy="3" r="3" transform="translate(60.627 22.046) scale(.47307)"/>
    <circle cx="3" cy="3" r="3" transform="translate(63.382 22.046) scale(.47307)"/>
    <circle cx="3" cy="3" r="3" transform="translate(71.65 22.046) scale(.47307)"/>
    <circle cx="3" cy="3" r="3" transform="translate(74.406 22.046) scale(.47307)"/>
    <circle cx="3" cy="3" r="3" transform="translate(77.161 22.046) scale(.47307)"/>
    <circle cx="3" cy="3" r="3" transform="translate(5.512 24.802) scale(.47307)"/>
    <circle cx="3" cy="3" r="3" transform="translate(13.779 24.802) scale(.47307)"/>
    <circle cx="3" cy="3" r="3" transform="translate(22.046 24.802) scale(.47307)"/>
    <circle cx="3" cy="3" r="3" transform="translate(30.313 24.802) scale(.47307)"/>
    <circle cx="3" cy="3" r="3" transform="translate(33.07 24.802) scale(.47307)"/>
    <circle cx="3" cy="3" r="3" transform="translate(35.825 24.802) scale(.47307)"/>
    <circle cx="3" cy="3" r="3" transform="translate(38.58 24.802) scale(.47307)"/>
    <circle cx="3" cy="3" r="3" transform="translate(41.336 24.802) scale(.47307)"/>
    <circle cx="3" cy="3" r="3" transform="translate(44.092 24.802) scale(.47307)"/>
    <circle cx="3" cy="3" r="3" transform="translate(57.871 24.802) scale(.47307)"/>
    <circle cx="3" cy="3" r="3" transform="translate(66.138 24.802) scale(.47307)"/>
    <circle cx="3" cy="3" r="3" transform="translate(68.894 24.802) scale(.47307)"/>
    <circle cx="3" cy="3" r="3" transform="translate(71.65 24.802) scale(.47307)"/>
    <circle cx="3" cy="3" r="3" transform="translate(77.161 24.802) scale(.47307)"/>
    <circle cx="3" cy="3" r="3" transform="translate(8.267 27.558) scale(.47307)"/>
    <circle cx="3" cy="3" r="3" transform="translate(16.535 27.558) scale(.47307)"/>
    <circle cx="3" cy="3" r="3" transform="translate(19.29 27.558) scale(.47307)"/>
    <circle cx="3" cy="3" r="3" transform="translate(27.558 27.558) scale(.47307)"/>
    <circle cx="3" cy="3" r="3" transform="translate(46.848 27.558) scale(.47307)"/>
    <circle cx="3" cy="3" r="3" transform="translate(55.115 27.558) scale(.47307)"/>
    <circle cx="3" cy="3" r="3" transform="translate(60.627 27.558) scale(.47307)"/>
    <circle cx="3" cy="3" r="3" transform="translate(63.382 27.558) scale(.47307)"/>
    <circle cx="3" cy="3" r="3" transform="translate(68.894 27.558) scale(.47307)"/>
    <circle cx="3" cy="3" r="3" transform="translate(71.65 27.558) scale(.47307)"/>
    <circle cx="3" cy="3" r="3" transform="translate(0 30.313) scale(.47307)"/>
    <circle cx="3" cy="3" r="3" transform="translate(8.267 30.313) scale(.47307)"/>
    <circle cx="3" cy="3" r="3" transform="translate(11.023 30.313) scale(.47307)"/>
    <circle cx="3" cy="3" r="3" transform="translate(33.07 30.313) scale(.47307)"/>
    <circle cx="3" cy="3" r="3" transform="translate(46.848 30.313) scale(.47307)"/>
    <circle cx="3" cy="3" r="3" transform="translate(60.627 30.313) scale(.47307)"/>
    <circle cx="3" cy="3" r="3" transform="translate(63.382 30.313) scale(.47307)"/>
    <circle cx="3" cy="3" r="3" transform="translate(74.406 30.313) scale(.47307)"/>
    <circle cx="3" cy="3" r="3" transform="translate(2.756 33.07) scale(.47307)"/>
    <circle cx="3" cy="3" r="3" transform="translate(16.535 33.07) scale(.47307)"/>
    <circle cx="3" cy="3" r="3" transform="translate(19.29 33.07) scale(.47307)"/>
    <circle cx="3" cy="3" r="3" transform="translate(22.046 33.07) scale(.47307)"/>
    <circle cx="3" cy="3" r="3" transform="translate(30.313 33.07) scale(.47307)"/>
    <circle cx="3" cy="3" r="3" transform="translate(35.825 33.07) scale(.47307)"/>
    <circle cx="3" cy="3" r="3" transform="translate(41.336 33.07) scale(.47307)"/>
    <circle cx="3" cy="3" r="3" transform="translate(46.848 33.07) scale(.47307)"/>
    <circle cx="3" cy="3" r="3" transform="translate(55.115 33.07) scale(.47307)"/>
    <circle cx="3" cy="3" r="3" transform="translate(57.871 33.07) scale(.47307)"/>
    <circle cx="3" cy="3" r="3" transform="translate(71.65 33.07) scale(.47307)"/>
    <circle cx="3" cy="3" r="3" transform="translate(74.406 33.07) scale(.47307)"/>
    <circle cx="3" cy="3" r="3" transform="translate(77.161 33.07) scale(.47307)"/>
    <circle cx="3" cy="3" r="3" transform="translate(0 35.825) scale(.47307)"/>
    <circle cx="3" cy="3" r="3" transform="translate(5.512 35.825) scale(.47307)"/>
    <circle cx="3" cy="3" r="3" transform="translate(11.023 35.825) scale(.47307)"/>
    <circle cx="3" cy="3" r="3" transform="translate(19.29 35.825) scale(.47307)"/>
    <circle cx="3" cy="3" r="3" transform="translate(24.802 35.825) scale(.47307)"/>
    <circle cx="3" cy="3" r="3" transform="translate(33.07 35.825) scale(.47307)"/>
    <circle cx="3" cy="3" r="3" transform="translate(35.825 35.825) scale(.47307)"/>
    <circle cx="3" cy="3" r="3" transform="translate(41.336 35.825) scale(.47307)"/>
    <circle cx="3" cy="3" r="3" transform="translate(46.848 35.825) scale(.47307)"/>
    <circle cx="3" cy="3" r="3" transform="translate(52.36 35.825) scale(.47307)"/>
    <circle cx="3" cy="3" r="3" transform="translate(55.115 35.825) scale(.47307)"/>
    <circle cx="3" cy="3" r="3" transform="translate(57.871 35.825) scale(.47307)"/>
    <circle cx="3" cy="3" r="3" transform="translate(60.627 35.825) scale(.47307)"/>
    <circle cx="3" cy="3" r="3" transform="translate(66.138 35.825) scale(.47307)"/>
    <circle cx="3" cy="3" r="3" transform="translate(68.894 35.825) scale(.47307)"/>
    <circle cx="3" cy="3" r="3" transform="translate(74.406 35.825) scale(.47307)"/>
    <circle cx="3" cy="3" r="3" transform="translate(77.161 35.825) scale(.47307)"/>
    <circle cx="3" cy="3" r="3" transform="translate(2.756 38.58) scale(.47307)"/>
    <circle cx="3" cy="3" r="3" transform="translate(13.779 38.58) scale(.47307)"/>
    <circle cx="3" cy="3" r="3" transform="translate(16.535 38.58) scale(.47307)"/>
    <circle cx="3" cy="3" r="3" transform="translate(22.046 38.58) scale(.47307)"/>
    <circle cx="3" cy="3" r="3" transform="translate(24.802 38.58) scale(.47307)"/>
    <circle cx="3" cy="3" r="3" transform="translate(35.825 38.58) scale(.47307)"/>
    <circle cx="3" cy="3" r="3" transform="translate(38.58 38.58) scale(.47307)"/>
    <circle cx="3" cy="3" r="3" transform="translate(41.336 38.58) scale(.47307)"/>
    <circle cx="3" cy="3" r="3" transform="translate(46.848 38.58) scale(.47307)"/>
    <circle cx="3" cy="3" r="3" transform="translate(49.604 38.58) scale(.47307)"/>
    <circle cx="3" cy="3" r="3" transform="translate(60.627 38.58) scale(.47307)"/>
    <circle cx="3" cy="3" r="3" transform="translate(0 41.336) scale(.47307)"/>
    <circle cx="3" cy="3" r="3" transform="translate(8.267 41.336) scale(.47307)"/>
    <circle cx="3" cy="3" r="3" transform="translate(11.023 41.336) scale(.47307)"/>
    <circle cx="3" cy="3" r="3" transform="translate(13.779 41.336) scale(.47307)"/>
    <circle cx="3" cy="3" r="3" transform="translate(19.29 41.336) scale(.47307)"/>
    <circle cx="3" cy="3" r="3" transform="translate(22.046 41.336) scale(.47307)"/>
    <circle cx="3" cy="3" r="3" transform="translate(27.558 41.336) scale(.47307)"/>
    <circle cx="3" cy="3" r="3" transform="translate(30.313 41.336) scale(.47307)"/>
    <circle cx="3" cy="3" r="3" transform="translate(33.07 41.336) scale(.47307)"/>
    <circle cx="3" cy="3" r="3" transform="translate(38.58 41.336) scale(.47307)"/>
    <circle cx="3" cy="3" r="3" transform="translate(44.092 41.336) scale(.47307)"/>
    <circle cx="3" cy="3" r="3" transform="translate(55.115 41.336) scale(.47307)"/>
    <circle cx="3" cy="3" r="3" transform="translate(57.871 41.336) scale(.47307)"/>
    <circle cx="3" cy="3" r="3" transform="translate(60.627 41.336) scale(.47307)"/>
    <circle cx="3" cy="3" r="3" transform="translate(68.894 41.336) scale(.47307)"/>
    <circle cx="3" cy="3" r="3" transform="translate(74.406 41.336) scale(.47307)"/>
    <circle cx="3" cy="3" r="3" transform="translate(2.756 44.092) scale(.47307)"/>
    <circle cx="3" cy="3" r="3" transform="translate(11.023 44.092) scale(.47307)"/>
    <circle cx="3" cy="3" r="3" transform="translate(16.535 44.092) scale(.47307)"/>
    <circle cx="3" cy="3" r="3" transform="translate(19.29 44.092) scale(.47307)"/>
    <circle cx="3" cy="3" r="3" transform="translate(22.046 44.092) scale(.47307)"/>
    <circle cx="3" cy="3" r="3" transform="translate(24.802 44.092) scale(.47307)"/>
    <circle cx="3" cy="3" r="3" transform="translate(27.558 44.092) scale(.47307)"/>
    <circle cx="3" cy="3" r="3" transform="translate(33.07 44.092) scale(.47307)"/>
    <circle cx="3" cy="3" r="3" transform="translate(38.58 44.092) scale(.47307)"/>
    <circle cx="3" cy="3" r="3" transform="translate(41.336 44.092) scale(.47307)"/>
    <circle cx="3" cy="3" r="3" transform="translate(44.092 44.092) scale(.47307)"/>
    <circle cx="3" cy="3" r="3" transform="translate(49.604 44.092) scale(.47307)"/>
    <circle cx="3" cy="3" r="3" transform="translate(60.627 44.092) scale(.47307)"/>
    <circle cx="3" cy="3" r="3" transform="translate(68.894 44.092) scale(.47307)"/>
    <circle cx="3" cy="3" r="3" transform="translate(71.65 44.092) scale(.47307)"/>
    <circle cx="3" cy="3" r="3" transform="translate(0 46.848) scale(.47307)"/>
    <circle cx="3" cy="3" r="3" transform="translate(8.267 46.848) scale(.47307)"/>
    <circle cx="3" cy="3" r="3" transform="translate(19.29 46.848) scale(.47307)"/>
    <circle cx="3" cy="3" r="3" transform="translate(22.046 46.848) scale(.47307)"/>
    <circle cx="3" cy="3" r="3" transform="translate(27.558 46.848) scale(.47307)"/>
    <circle cx="3" cy="3" r="3" transform="translate(30.313 46.848) scale(.47307)"/>
    <circle cx="3" cy="3" r="3" transform="translate(33.07 46.848) scale(.47307)"/>
    <circle cx="3" cy="3" r="3" transform="translate(44.092 46.848) scale(.47307)"/>
    <circle cx="3" cy="3" r="3" transform="translate(55.115 46.848) scale(.47307)"/>
    <circle cx="3" cy="3" r="3" transform="translate(57.871 46.848) scale(.47307)"/>
    <circle cx="3" cy="3" r="3" transform="translate(66.138 46.848) scale(.47307)"/>
    <circle cx="3" cy="3" r="3" transform="translate(68.894 46.848) scale(.47307)"/>
    <circle cx="3" cy="3" r="3" transform="translate(71.65 46.848) scale(.47307)"/>
    <circle cx="3" cy="3" r="3" transform="translate(74.406 46.848) scale(.47307)"/>
    <circle cx="3" cy="3" r="3" transform="translate(77.161 46.848) scale(.47307)"/>
    <circle cx="3" cy="3" r="3" transform="translate(0 49.604) scale(.47307)"/>
    <circle cx="3" cy="3" r="3" transform="translate(11.023 49.604) scale(.47307)"/>
    <circle cx="3" cy="3" r="3" transform="translate(13.779 49.604) scale(.47307)"/>
    <circle cx="3" cy="3" r="3" transform="translate(16.535 49.604) scale(.47307)"/>
    <circle cx="3" cy="3" r="3" transform="translate(33.07 49.604) scale(.47307)"/>
    <circle cx="3" cy="3" r="3" transform="translate(35.825 49.604) scale(.47307)"/>
    <circle cx="3" cy="3" r="3" transform="translate(49.604 49.604) scale(.47307)"/>
    <circle cx="3" cy="3" r="3" transform="translate(52.36 49.604) scale(.47307)"/>
    <circle cx="3" cy="3" r="3" transform="translate(60.627 49.604) scale(.47307)"/>
    <circle cx="3" cy="3" r="3" transform="translate(66.138 49.604) scale(.47307)"/>
    <circle cx="3" cy="3" r="3" transform="translate(71.65 49.604) scale(.47307)"/>
    <circle cx="3" cy="3" r="3" transform="translate(0 52.36) scale(.47307)"/>
    <circle cx="3" cy="3" r="3" transform="translate(5.512 52.36) scale(.47307)"/>
    <circle cx="3" cy="3" r="3" transform="translate(8.267 52.36) scale(.47307)"/>
    <circle cx="3" cy="3" r="3" transform="translate(19.29 52.36) scale(.47307)"/>
    <circle cx="3" cy="3" r="3" transform="translate(24.802 52.36) scale(.47307)"/>
    <circle cx="3" cy="3" r="3" transform="translate(27.558 52.36) scale(.47307)"/>
    <circle cx="3" cy="3" r="3" transform="translate(33.07 52.36) scale(.47307)"/>
    <circle cx="3" cy="3" r="3" transform="translate(35.825 52.36) scale(.47307)"/>
    <circle cx="3" cy="3" r="3" transform="translate(38.58 52.36) scale(.47307)"/>
    <circle cx="3" cy="3" r="3" transform="translate(46.848 52.36) scale(.47307)"/>
    <circle cx="3" cy="3" r="3" transform="translate(52.36 52.36) scale(.47307)"/>
    <circle cx="3" cy="3" r="3" transform="translate(55.115 52.36) scale(.47307)"/>
    <circle cx="3" cy="3" r="3" transform="translate(60.627 52.36) scale(.47307)"/>
    <circle cx="3" cy="3" r="3" transform="translate(63.382 52.36) scale(.47307)"/>
    <circle cx="3" cy="3" r="3" transform="translate(66.138 52.36) scale(.47307)"/>
    <circle cx="3" cy="3" r="3" transform="translate(68.894 52.36) scale(.47307)"/>
    <circle cx="3" cy="3" r="3" transform="translate(74.406 52.36) scale(.47307)"/>
    <circle cx="3" cy="3" r="3" transform="translate(77.161 52.36) scale(.47307)"/>
    <circle cx="3" cy="3" r="3" transform="translate(0 55.115) scale(.47307)"/>
    <circle cx="3" cy="3" r="3" transform="translate(8.267 55.115) scale(.47307)"/>
    <circle cx="3" cy="3" r="3" transform="translate(13.779 55.115) scale(.47307)"/>
    <circle cx="3" cy="3" r="3" transform="translate(16.535 55.115) scale(.47307)"/>
    <circle cx="3" cy="3" r="3" transform="translate(19.29 55.115) scale(.47307)"/>
    <circle cx="3" cy="3" r="3" transform="translate(22.046 55.115) scale(.47307)"/>
    <circle cx="3" cy="3" r="3" transform="translate(27.558 55.115) scale(.47307)"/>
    <circle cx="3" cy="3" r="3" transform="translate(33.07 55.115) scale(.47307)"/>
    <circle cx="3" cy="3" r="3" transform="translate(35.825 55.115) scale(.47307)"/>
    <circle cx="3" cy="3" r="3" transform="translate(41.336 55.115) scale(.47307)"/>
    <circle cx="3" cy="3" r="3" transform="translate(46.848 55.115) scale(.47307)"/>
    <circle cx="3" cy="3" r="3" transform="translate(52.36 55.115) scale(.47307)"/>
    <circle cx="3" cy="3" r="3" transform="translate(55.115 55.115) scale(.47307)"/>
    <circle cx="3" cy="3" r="3" transform="translate(57.871 55.115) scale(.47307)"/>
    <circle cx="3" cy="3" r="3" transform="translate(60.627 55.115) scale(.47307)"/>
    <circle cx="3" cy="3" r="3" transform="translate(63.382 55.115) scale(.47307)"/>
    <circle cx="3" cy="3" r="3" transform="translate(66.138 55.115) scale(.47307)"/>
    <circle cx="3" cy="3" r="3" transform="translate(68.894 55.115) scale(.47307)"/>
    <circle cx="3" cy="3" r="3" transform="translate(71.65 55.115) scale(.47307)"/>
    <circle cx="3" cy="3" r="3" transform="translate(74.406 55.115) scale(.47307)"/>
    <circle cx="3" cy="3" r="3" transform="translate(22.046 57.871) scale(.47307)"/>
    <circle cx="3" cy="3" r="3" transform="translate(27.558 57.871) scale(.47307)"/>
    <circle cx="3" cy="3" r="3" transform="translate(33.07 57.871) scale(.47307)"/>
    <circle cx="3" cy="3" r="3" transform="translate(46.848 57.871) scale(.47307)"/>
    <circle cx="3" cy="3" r="3" transform="translate(52.36 57.871) scale(.47307)"/>
    <circle cx="3" cy="3" r="3" transform="translate(55.115 57.871) scale(.47307)"/>
    <circle cx="3" cy="3" r="3" transform="translate(66.138 57.871) scale(.47307)"/>
    <circle cx="3" cy="3" r="3" transform="translate(68.894 57.871) scale(.47307)"/>
    <circle cx="3" cy="3" r="3" transform="translate(74.406 57.871) scale(.47307)"/>
    <circle cx="3" cy="3" r="3" transform="translate(77.161 57.871) scale(.47307)"/>
    <circle cx="3" cy="3" r="3" transform="translate(24.802 60.627) scale(.47307)"/>
    <circle cx="3" cy="3" r="3" transform="translate(30.313 60.627) scale(.47307)"/>
    <circle cx="3" cy="3" r="3" transform="translate(38.58 60.627) scale(.47307)"/>
    <circle cx="3" cy="3" r="3" transform="translate(44.092 60.627) scale(.47307)"/>
    <circle cx="3" cy="3" r="3" transform="translate(46.848 60.627) scale(.47307)"/>
    <circle cx="3" cy="3" r="3" transform="translate(52.36 60.627) scale(.47307)"/>
    <circle cx="3" cy="3" r="3" transform="translate(55.115 60.627) scale(.47307)"/>
    <circle cx="3" cy="3" r="3" transform="translate(60.627 60.627) scale(.47307)"/>
    <circle cx="3" cy="3" r="3" transform="translate(66.138 60.627) scale(.47307)"/>
    <circle cx="3" cy="3" r="3" transform="translate(35.825 63.382) scale(.47307)"/>
    <circle cx="3" cy="3" r="3" transform="translate(44.092 63.382) scale(.47307)"/>
    <circle cx="3" cy="3" r="3" transform="translate(46.848 63.382) scale(.47307)"/>
    <circle cx="3" cy="3" r="3" transform="translate(52.36 63.382) scale(.47307)"/>
    <circle cx="3" cy="3" r="3" transform="translate(55.115 63.382) scale(.47307)"/>
    <circle cx="3" cy="3" r="3" transform="translate(66.138 63.382) scale(.47307)"/>
    <circle cx="3" cy="3" r="3" transform="translate(68.894 63.382) scale(.47307)"/>
    <circle cx="3" cy="3" r="3" transform="translate(74.406 63.382) scale(.47307)"/>
    <circle cx="3" cy="3" r="3" transform="translate(77.161 63.382) scale(.47307)"/>
    <circle cx="3" cy="3" r="3" transform="translate(22.046 66.138) scale(.47307)"/>
    <circle cx="3" cy="3" r="3" transform="translate(24.802 66.138) scale(.47307)"/>
    <circle cx="3" cy="3" r="3" transform="translate(27.558 66.138) scale(.47307)"/>
    <circle cx="3" cy="3" r="3" transform="translate(30.313 66.138) scale(.47307)"/>
    <circle cx="3" cy="3" r="3" transform="translate(38.58 66.138) scale(.47307)"/>
    <circle cx="3" cy="3" r="3" transform="translate(41.336 66.138) scale(.47307)"/>
    <circle cx="3" cy="3" r="3" transform="translate(55.115 66.138) scale(.47307)"/>
    <circle cx="3" cy="3" r="3" transform="translate(57.871 66.138) scale(.47307)"/>
    <circle cx="3" cy="3" r="3" transform="translate(60.627 66.138) scale(.47307)"/>
    <circle cx="3" cy="3" r="3" transform="translate(63.382 66.138) scale(.47307)"/>
    <circle cx="3" cy="3" r="3" transform="translate(66.138 66.138) scale(.47307)"/>
    <circle cx="3" cy="3" r="3" transform="translate(68.894 66.138) scale(.47307)"/>
    <circle cx="3" cy="3" r="3" transform="translate(71.65 66.138) scale(.47307)"/>
    <circle cx="3" cy="3" r="3" transform="translate(77.161 66.138) scale(.47307)"/>
    <circle cx="3" cy="3" r="3" transform="translate(22.046 68.894) scale(.47307)"/>
    <circle cx="3" cy="3" r="3" transform="translate(24.802 68.894) scale(.47307)"/>
    <circle cx="3" cy="3" r="3" transform="translate(27.558 68.894) scale(.47307)"/>
    <circle cx="3" cy="3" r="3" transform="translate(33.07 68.894) scale(.47307)"/>
    <circle cx="3" cy="3" r="3" transform="translate(44.092 68.894) scale(.47307)"/>
    <circle cx="3" cy="3" r="3" transform="translate(46.848 68.894) scale(.47307)"/>
    <circle cx="3" cy="3" r="3" transform="translate(52.36 68.894) scale(.47307)"/>
    <circle cx="3" cy="3" r="3" transform="translate(63.382 68.894) scale(.47307)"/>
    <circle cx="3" cy="3" r="3" transform="translate(22.046 71.65) scale(.47307)"/>
    <circle cx="3" cy="3" r="3" transform="translate(24.802 71.65) scale(.47307)"/>
    <circle cx="3" cy="3" r="3" transform="translate(27.558 71.65) scale(.47307)"/>
    <circle cx="3" cy="3" r="3" transform="translate(44.092 71.65) scale(.47307)"/>
    <circle cx="3" cy="3" r="3" transform="translate(46.848 71.65) scale(.47307)"/>
    <circle cx="3" cy="3" r="3" transform="translate(49.604 71.65) scale(.47307)"/>
    <circle cx="3" cy="3" r="3" transform="translate(57.871 71.65) scale(.47307)"/>
    <circle cx="3" cy="3" r="3" transform="translate(60.627 71.65) scale(.47307)"/>
    <circle cx="3" cy="3" r="3" transform="translate(66.138 71.65) scale(.47307)"/>
    <circle cx="3" cy="3" r="3" transform="translate(74.406 71.65) scale(.47307)"/>
    <circle cx="3" cy="3" r="3" transform="translate(24.802 74.406) scale(.47307)"/>
    <circle cx="3" cy="3" r="3" transform="translate(27.558 74.406) scale(.47307)"/>
    <circle cx="3" cy="3" r="3" transform="translate(30.313 74.406) scale(.47307)"/>
    <circle cx="3" cy="3" r="3" transform="translate(33.07 74.406) scale(.47307)"/>
    <circle cx="3" cy="3" r="3" transform="translate(38.58 74.406) scale(.47307)"/>
    <circle cx="3" cy="3" r="3" transform="translate(44.092 74.406) scale(.47307)"/>
    <circle cx="3" cy="3" r="3" transform="translate(46.848 74.406) scale(.47307)"/>
    <circle cx="3" cy="3" r="3" transform="translate(52.36 74.406) scale(.47307)"/>
    <circle cx="3" cy="3" r="3" transform="translate(57.871 74.406) scale(.47307)"/>
    <circle cx="3" cy="3" r="3" transform="translate(66.138 74.406) scale(.47307)"/>
    <circle cx="3" cy="3" r="3" transform="translate(68.894 74.406) scale(.47307)"/>
    <circle cx="3" cy="3" r="3" transform="translate(74.406 74.406) scale(.47307)"/>
    <circle cx="3" cy="3" r="3" transform="translate(24.802 77.161) scale(.47307)"/>
    <circle cx="3" cy="3" r="3" transform="translate(27.558 77.161) scale(.47307)"/>
    <circle cx="3" cy="3" r="3" transform="translate(38.58 77.161) scale(.47307)"/>
    <circle cx="3" cy="3" r="3" transform="translate(41.336 77.161) scale(.47307)"/>
    <circle cx="3" cy="3" r="3" transform="translate(44.092 77.161) scale(.47307)"/>
    <circle cx="3" cy="3" r="3" transform="translate(49.604 77.161) scale(.47307)"/>
    <circle cx="3" cy="3" r="3" transform="translate(66.138 77.161) scale(.47307)"/>
    <circle cx="3" cy="3" r="3" transform="translate(68.894 77.161) scale(.47307)"/>
    <circle cx="3" cy="3" r="3" transform="translate(71.65 77.161) scale(.47307)"/>
    <path d="M0 0v19.29h19.29V0H0zm16.535 16.535H2.755V2.755h13.78v13.78zM60.627 0v19.29h19.29V0h-19.29zM77.16 16.535H63.382V2.755h13.78v13.78zM0 60.627v19.29h19.29v-19.29H0zM16.535 77.16H2.755V63.382h13.78v13.78z"/>
    <path d="M5.512 5.512h8.267v8.267H5.512zM66.138 5.512h8.268v8.267h-8.268zM5.512 66.138h8.267v8.268H5.512z"/>
  </g>
</svg>
