<?xml version="1.0" encoding="iso-8859-1"?>
<!-- Generator: Adobe Illustrator 18.0.0, SVG Export Plug-In . SVG Version: 6.00 Build 0)  -->
<!DOCTYPE svg PUBLIC "-//W3C//DTD SVG 1.1//EN" "http://www.w3.org/Graphics/SVG/1.1/DTD/svg11.dtd">
<svg version="1.1" id="Capa_1" xmlns="http://www.w3.org/2000/svg" xmlns:xlink="http://www.w3.org/1999/xlink" x="0px" y="0px"
	 viewBox="0 0 419.604 419.604" style="enable-background:new 0 0 419.604 419.604;" xml:space="preserve">
<g>
	<path d="M60.874,163.013c2.753-0.207,4.818-2.607,4.61-5.361c-0.225-2.988-0.339-6.028-0.339-9.037c0-2.761-2.239-5-5-5
		s-5,2.239-5,5c0,3.258,0.124,6.551,0.367,9.787c0.198,2.626,2.39,4.625,4.98,4.625C60.619,163.027,60.746,163.022,60.874,163.013z"
		/>
	<path d="M129.297,265.454c0.69,0.326,1.417,0.48,2.132,0.48c1.874,0,3.67-1.059,4.524-2.865c1.18-2.497,0.112-5.477-2.385-6.657
		c-33.379-15.77-57.952-46.631-65.732-82.552c-0.584-2.699-3.242-4.411-5.945-3.828c-2.699,0.584-4.413,3.246-3.828,5.945
		C66.496,214.916,93.126,248.365,129.297,265.454z"/>
	<path d="M284.551,179.083c-2.597-0.929-5.462,0.422-6.393,3.022c-1.479,4.132-3.252,8.206-5.269,12.109
		c-1.268,2.453-0.307,5.47,2.146,6.738c0.734,0.379,1.519,0.559,2.292,0.559c1.81,0,3.557-0.986,4.446-2.705
		c2.221-4.296,4.172-8.781,5.8-13.33C288.504,182.876,287.151,180.014,284.551,179.083z"/>
	<path d="M292.835,164.251c0.738-5.144,1.112-10.405,1.112-15.636c0-45.53-28.697-86.834-71.409-102.78
		c-2.588-0.966-5.468,0.348-6.433,2.935c-0.966,2.587,0.348,5.467,2.935,6.433c38.823,14.494,64.907,52.033,64.907,93.412
		c0,4.758-0.34,9.541-1.01,14.217c-0.392,2.733,1.506,5.267,4.24,5.659c0.241,0.034,0.479,0.051,0.716,0.051
		C290.339,168.542,292.477,166.744,292.835,164.251z"/>
	<path d="M170.802,30.234c4.444-0.503,8.98-0.758,13.481-0.758c65.693,0,119.139,53.446,119.139,119.139
		c0,43.196-23.531,83.121-61.41,104.195c-2.413,1.343-3.281,4.387-1.938,6.8c0.914,1.643,2.618,2.57,4.374,2.57
		c0.823,0,1.657-0.203,2.426-0.632c41.049-22.837,66.549-66.111,66.549-112.934c0-71.208-57.931-129.139-129.139-129.139
		c-4.875,0-9.789,0.276-14.605,0.821c-2.744,0.31-4.717,2.786-4.406,5.53C165.582,28.571,168.056,30.549,170.802,30.234z"/>
	<path d="M139.188,37.954c0.605,0,1.222-0.111,1.82-0.345c4.075-1.594,8.281-2.975,12.503-4.105
		c2.667-0.714,4.251-3.455,3.538-6.123c-0.714-2.667-3.454-4.251-6.123-3.538c-4.579,1.225-9.142,2.723-13.562,4.452
		c-2.571,1.006-3.841,3.906-2.834,6.478C135.302,36.748,137.19,37.954,139.188,37.954z"/>
	<path d="M184.284,182.427c18.644,0,33.812-15.168,33.812-33.812s-15.168-33.812-33.812-33.812s-33.812,15.168-33.812,33.812
		S165.64,182.427,184.284,182.427z M184.284,124.803c13.13,0,23.812,10.682,23.812,23.812s-10.682,23.812-23.812,23.812
		s-23.812-10.682-23.812-23.812S171.154,124.803,184.284,124.803z"/>
	<path d="M177.467,165.421H191.1c1.786,0,3.437-0.953,4.33-2.5l6.816-11.806c0.893-1.547,0.893-3.453,0-5l-6.816-11.806
		c-0.893-1.547-2.544-2.5-4.33-2.5h-13.632c-1.786,0-3.437,0.953-4.33,2.5l-6.816,11.806c-0.893,1.547-0.893,3.453,0,5l6.816,11.806
		C174.03,164.468,175.681,165.421,177.467,165.421z M180.354,141.809h7.859l3.93,6.806l-3.93,6.806h-7.859l-3.929-6.806
		L180.354,141.809z"/>
	<path d="M383.936,148.615c0-13-10.577-23.577-23.577-23.577s-23.577,10.577-23.577,23.577c0,10.743,7.225,19.824,17.069,22.656
		c-6.334,47.534-32.685,90.145-71.511,117.431V260.19c30.976-27.256,50.56-67.169,50.56-111.575C332.899,66.668,266.23,0,184.284,0
		C102.337,0,35.669,66.668,35.669,148.615c0,44.404,19.581,84.316,50.556,111.572v137.478c0,12.098,9.842,21.94,21.94,21.94h152.235
		c12.098,0,21.94-9.842,21.94-21.94v-96.909c44.407-28.74,74.655-75.932,81.503-128.823
		C375.197,170.244,383.936,160.432,383.936,148.615z M45.669,148.615C45.669,72.182,107.851,10,184.284,10
		s138.615,62.182,138.615,138.615S260.716,287.23,184.284,287.23S45.669,225.048,45.669,148.615z M184.284,297.23
		c32.933,0,63.393-10.774,88.055-28.974v26.961c-5.691,3.433-11.598,6.57-17.728,9.346c-16.684,7.555-28.015,23.376-29.984,41.263
		h-10.609v-24.823c0-2.761-2.239-5-5-5h-14.322v-5.752c0-2.761-2.239-5-5-5s-5,2.239-5,5v5.752h-51.674v-5.752c0-2.761-2.239-5-5-5
		s-5,2.239-5,5v5.752h-14.322c-2.761,0-5,2.239-5,5v25.845h-7.477v-78.595C120.887,286.454,151.349,297.23,184.284,297.23z
		 M133.023,326.003h51.674v49.645h-51.674V326.003z M123.023,375.648h-9.322v-49.645h9.322V375.648z M194.697,326.003h9.322v49.645
		h-9.322V326.003z M272.339,397.664c0,6.584-5.356,11.94-11.94,11.94H108.164c-6.583,0-11.94-5.356-11.94-11.94v-40.816h7.477v23.8
		c0,2.761,2.239,5,5,5h14.322v5.752c0,2.761,2.239,5,5,5s5-2.239,5-5v-5.752h51.674v5.752c0,2.761,2.239,5,5,5s5-2.239,5-5v-5.752
		h14.322c2.761,0,5-2.239,5-5v-24.823h10.303l0.001,10.743c0,2.761,2.239,5,5,5c2.761,0,5-2.239,5-5l-0.001-10.743h10.558
		c2.761,0,5-2.239,5-5s-2.239-5-5-5h-10.164c1.916-13.956,10.912-26.217,24.021-32.153c4.656-2.108,9.183-4.423,13.603-6.894
		V397.664z M360.359,162.192c-7.486,0-13.577-6.091-13.577-13.577s6.091-13.577,13.577-13.577s13.577,6.091,13.577,13.577
		S367.845,162.192,360.359,162.192z"/>
	<path d="M235.532,387.871c0,7.753,6.308,14.061,14.061,14.061c7.753,0,14.061-6.308,14.061-14.061
		c0-7.753-6.308-14.061-14.061-14.061C241.84,373.81,235.532,380.118,235.532,387.871z M253.654,387.871
		c0,2.239-1.822,4.061-4.061,4.061c-2.239,0-4.061-1.822-4.061-4.061s1.822-4.061,4.061-4.061
		C251.832,383.81,253.654,385.632,253.654,387.871z"/>
</g>
<g>
</g>
<g>
</g>
<g>
</g>
<g>
</g>
<g>
</g>
<g>
</g>
<g>
</g>
<g>
</g>
<g>
</g>
<g>
</g>
<g>
</g>
<g>
</g>
<g>
</g>
<g>
</g>
<g>
</g>
</svg>
